<?xml version="1.0" encoding="UTF-8" standalone="no"?>
<!DOCTYPE svg PUBLIC "-//W3C//DTD SVG 1.1//EN" "http://www.w3.org/Graphics/SVG/1.1/DTD/svg11.dtd"
[
<!ATTLIST g
  xmlns:vectornator CDATA #FIXED "http://vectornator.io"
  vectornator:layerName CDATA #IMPLIED >
<!ATTLIST g
  xmlns:vectornator CDATA #FIXED "http://vectornator.io"
  vectornator:mask CDATA #IMPLIED >
<!ATTLIST text
  xmlns:vectornator CDATA #FIXED "http://vectornator.io"
  vectornator:width CDATA #IMPLIED >
<!ATTLIST text
  xmlns:vectornator CDATA #FIXED "http://vectornator.io"
  vectornator:text CDATA #IMPLIED >

<!ATTLIST path
  xmlns:vectornator CDATA #FIXED "http://vectornator.io"
  vectornator:blendMode CDATA #IMPLIED >
<!ATTLIST path
  xmlns:vectornator CDATA #FIXED "http://vectornator.io"
  vectornator:shadowColor CDATA #IMPLIED >
<!ATTLIST path
  xmlns:vectornator CDATA #FIXED "http://vectornator.io"
  vectornator:shadowOpacity CDATA #IMPLIED >
<!ATTLIST path
  xmlns:vectornator CDATA #FIXED "http://vectornator.io"
  vectornator:shadowRadius CDATA #IMPLIED >
<!ATTLIST path
  xmlns:vectornator CDATA #FIXED "http://vectornator.io"
  vectornator:shadowOffset CDATA #IMPLIED >
<!ATTLIST path
  xmlns:vectornator CDATA #FIXED "http://vectornator.io"
  vectornator:shadowAngle CDATA #IMPLIED >

<!ATTLIST image
  xmlns:vectornator CDATA #FIXED "http://vectornator.io"
  vectornator:blendMode CDATA #IMPLIED >
<!ATTLIST image
  xmlns:vectornator CDATA #FIXED "http://vectornator.io"
  vectornator:shadowColor CDATA #IMPLIED >
<!ATTLIST image
  xmlns:vectornator CDATA #FIXED "http://vectornator.io"
  vectornator:shadowOpacity CDATA #IMPLIED >
<!ATTLIST image
  xmlns:vectornator CDATA #FIXED "http://vectornator.io"
  vectornator:shadowRadius CDATA #IMPLIED >
<!ATTLIST image
  xmlns:vectornator CDATA #FIXED "http://vectornator.io"
  vectornator:shadowOffset CDATA #IMPLIED >
<!ATTLIST image
  xmlns:vectornator CDATA #FIXED "http://vectornator.io"
  vectornator:shadowAngle CDATA #IMPLIED >

<!ATTLIST g
  xmlns:vectornator CDATA #FIXED "http://vectornator.io"
  vectornator:blendMode CDATA #IMPLIED >
<!ATTLIST g
  xmlns:vectornator CDATA #FIXED "http://vectornator.io"
  vectornator:shadowColor CDATA #IMPLIED >
<!ATTLIST g
  xmlns:vectornator CDATA #FIXED "http://vectornator.io"
  vectornator:shadowOpacity CDATA #IMPLIED >
<!ATTLIST g
  xmlns:vectornator CDATA #FIXED "http://vectornator.io"
  vectornator:shadowRadius CDATA #IMPLIED >
<!ATTLIST g
  xmlns:vectornator CDATA #FIXED "http://vectornator.io"
  vectornator:shadowOffset CDATA #IMPLIED >
<!ATTLIST g
  xmlns:vectornator CDATA #FIXED "http://vectornator.io"
  vectornator:shadowAngle CDATA #IMPLIED >

<!ENTITY % SVG.filter.extra.content  "| feDropShadow" >
<!ELEMENT feDropShadow EMPTY>
<!ATTLIST feDropShadow
  xmlns:svg CDATA #FIXED "http://www.w3.org/Graphics/SVG/1.1/DTD/svg11.dtd"
  dx CDATA #IMPLIED>
<!ATTLIST feDropShadow
  xmlns:svg CDATA #FIXED "http://www.w3.org/Graphics/SVG/1.1/DTD/svg11.dtd"
  dy CDATA #IMPLIED>
<!ATTLIST feDropShadow
  xmlns:svg CDATA #FIXED "http://www.w3.org/Graphics/SVG/1.1/DTD/svg11.dtd"
  stdDeviation CDATA #IMPLIED>
<!ATTLIST feDropShadow
  xmlns:svg CDATA #FIXED "http://www.w3.org/Graphics/SVG/1.1/DTD/svg11.dtd"
  flood-opacity CDATA #IMPLIED>
<!ATTLIST feDropShadow
  xmlns:svg CDATA #FIXED "http://www.w3.org/Graphics/SVG/1.1/DTD/svg11.dtd"
  in CDATA #IMPLIED>
<!ATTLIST feDropShadow
  xmlns:svg CDATA #FIXED "http://www.w3.org/Graphics/SVG/1.1/DTD/svg11.dtd"
  result CDATA #IMPLIED>
<!ATTLIST feDropShadow
  xmlns:svg CDATA #FIXED "http://www.w3.org/Graphics/SVG/1.1/DTD/svg11.dtd"
  flood-color CDATA #IMPLIED>
]
>
<!-- Created with Vectornator (http://vectornator.io/) -->
<svg height="100%" stroke-miterlimit="10" style="fill-rule:nonzero;clip-rule:evenodd;stroke-linecap:round;stroke-linejoin:round;" version="1.1" viewBox="0 0 500 780" width="100%" xml:space="preserve" xmlns="http://www.w3.org/2000/svg" xmlns:vectornator="http://vectornator.io" xmlns:xlink="http://www.w3.org/1999/xlink">
<defs/>
<g id="Layer-1" vectornator:layerName="Layer 1">
<path d="M68.3183 11.9427C68.3183 11.9427-32.4921 183.02 52.6992 163.575C137.89 144.13 57.6104 230.637 67.1588 263.562C80.8945 310.927 51.7892 391.794 44.4641 423.473C38.0028 451.417 69.6512 442.605 107.111 417.515C113.623 413.154 71.3992 444.834 53.9909 470.629C48.8713 478.215 111.864 469.335 153.519 434.386C171.015 419.707 190.876 401.178 204.156 390.363C205.85 388.984 210.149 381.227 220.624 382.593C232.547 384.148 243.389 390.373 260.806 395.039C268.981 397.229 278.552 403.911 286.883 407.777C296.641 412.304 305.15 414.054 314.521 416.509C324.061 419.009 337.818 423.305 346.271 423.657C350.367 423.828 366.177 423.997 358.785 417.639C355.823 415.091 338.814 407.041 316.607 400.981C309.554 399.056 301.872 397.725 294.085 396.326C285.151 394.722 276.078 393.028 267.657 390.248C251.502 384.914 226.861 380.315 215.886 360.086C211.988 352.901 215.696 332.614 218.255 313.173C219.37 304.701 215.291 251.512 236.268 247.144C249.899 244.306 266.404 250.211 285.226 253.714C291.972 254.969 301.961 256.826 313.51 259.154C317.929 260.044 322.576 261.004 327.358 262.025C333.063 263.243 338.959 264.549 344.886 265.93C356.668 268.675 368.572 271.718 379.342 274.96C396.222 280.041 409.065 273.422 416.085 286.84C421.329 296.863 412.209 316.278 410.863 330.233C409.9 340.215 401.661 367.882 400.065 388.556C399.453 396.479 398.854 411.729 390.978 413.133C377.057 415.614 305.205 398.554 262.009 379.378C225.607 363.218 212.76 350.933 226.267 362.016C233.519 367.966 233.461 261.674 242.549 262.053C252.257 262.458 243.116 261.903 264.394 262.46C287.081 263.054 321.627 271.702 351.4 279.003C369.851 283.527 391.708 284.225 400.254 293.569C408.187 302.244 402.27 350.267 387.014 400.567C378.587 428.349 360.979 459.793 350.387 483.191C346.465 491.853 327.874 511.888 321.042 524.23C317.024 531.487 322.216 535.088 323.068 534.826C323.813 534.596 332.62 534.759 336.758 529.629C342.618 522.363 373.331 477.629 385.984 450.567C388.692 444.776 394.941 435.642 393.445 432.029C392.815 430.508 387.288 428.158 379.533 436.813C363.537 454.666 334.294 503.906 314.882 531.114C311.852 535.361 309.062 539.071 306.599 542.041C304.34 544.763 295.38 543.512 301.453 531.393C304.772 524.768 310.428 516.397 315.227 507.002C318.217 501.15 319.48 493.711 323.899 489.686C327.841 486.097 334.577 481.482 337.355 478.453C339.623 475.98 344.263 468.646 343.748 466.744C343.464 465.695 340.483 464.959 336.603 467.705C333.995 469.551 322.962 483.314 321.554 481.04C320.485 479.314 326.369 462.772 326.919 454.262C327.091 451.601 325.27 450.197 324.442 449.671C324.129 449.471 319.649 451.697 317.492 454.722C313.097 460.884 309.396 470.476 307.551 470.425C306.306 470.391 312.774 448.257 309.376 447.143C308.686 446.916 305.349 446.937 303.288 449.516C301.473 451.787 300.232 457.49 298.306 460.425C295.993 463.948 293.061 464.559 291.872 464.848C290.384 465.211 296.582 449.862 292.795 449.022C291.719 448.783 285.126 452.509 280.163 459.23C276.397 464.331 273.972 471.508 273.288 477.96C272.761 482.933 265.153 490.096 260.816 485.85C259.082 484.153 261.47 477.374 260.792 473.53C260.384 471.221 255.864 463.852 252.565 468.742C251.565 470.225 247.814 480.486 248.174 486.149C248.84 496.62 254.736 523.132 261.735 528.287C262.762 529.044 272.574 523.561 263.91 518.319C258.317 514.935 229.454 510.613 206.253 500.024C201.687 497.94 162.212 477.903 164.194 472.509C166.369 466.594 187.588 461.227 198.329 459.656C209.071 458.085 215.77 455.676 220.478 453.314C223.841 451.628 228.873 445.294 234.86 440.687C239.398 437.195 246.249 437.11 246.875 432.483C247.733 426.136 238.446 430.354 230.076 432.813C227.635 433.529 217.014 435.029 216.361 432.693C216.052 431.591 217.05 425.83 222.911 423.451C230.991 420.17 250.36 418.476 257.472 415.798C258.688 415.34 258.359 411.701 252.277 411.056C245.132 410.298 222.529 412.527 218.239 410.543C216.989 409.965 233.138 403.864 230.773 402.134C229.433 401.154 210.328 398.844 197.008 405.928C187.854 410.796 173.095 431.447 153.018 442.563C146.352 446.254 145.618 458.667 149.554 463.863C151.17 465.996 158.315 469.677 160.064 463.052C160.711 460.6 154.197 454.863 152.961 449.557C151.799 444.567 156.028 440.103 153.057 434.667" fill="none" fill-rule="evenodd" opacity="1" stroke="#c91414" stroke-linecap="butt" stroke-linejoin="round" stroke-width="5"/>
</g>
</svg>
