<?xml version="1.0" encoding="UTF-8" standalone="no"?>
<!DOCTYPE svg PUBLIC "-//W3C//DTD SVG 1.1//EN" "http://www.w3.org/Graphics/SVG/1.1/DTD/svg11.dtd"
[
<!ATTLIST g
  xmlns:vectornator CDATA #FIXED "http://vectornator.io"
  vectornator:layerName CDATA #IMPLIED >
<!ATTLIST g
  xmlns:vectornator CDATA #FIXED "http://vectornator.io"
  vectornator:mask CDATA #IMPLIED >
<!ATTLIST text
  xmlns:vectornator CDATA #FIXED "http://vectornator.io"
  vectornator:width CDATA #IMPLIED >
<!ATTLIST text
  xmlns:vectornator CDATA #FIXED "http://vectornator.io"
  vectornator:text CDATA #IMPLIED >

<!ATTLIST path
  xmlns:vectornator CDATA #FIXED "http://vectornator.io"
  vectornator:blendMode CDATA #IMPLIED >
<!ATTLIST path
  xmlns:vectornator CDATA #FIXED "http://vectornator.io"
  vectornator:shadowColor CDATA #IMPLIED >
<!ATTLIST path
  xmlns:vectornator CDATA #FIXED "http://vectornator.io"
  vectornator:shadowOpacity CDATA #IMPLIED >
<!ATTLIST path
  xmlns:vectornator CDATA #FIXED "http://vectornator.io"
  vectornator:shadowRadius CDATA #IMPLIED >
<!ATTLIST path
  xmlns:vectornator CDATA #FIXED "http://vectornator.io"
  vectornator:shadowOffset CDATA #IMPLIED >
<!ATTLIST path
  xmlns:vectornator CDATA #FIXED "http://vectornator.io"
  vectornator:shadowAngle CDATA #IMPLIED >

<!ATTLIST image
  xmlns:vectornator CDATA #FIXED "http://vectornator.io"
  vectornator:blendMode CDATA #IMPLIED >
<!ATTLIST image
  xmlns:vectornator CDATA #FIXED "http://vectornator.io"
  vectornator:shadowColor CDATA #IMPLIED >
<!ATTLIST image
  xmlns:vectornator CDATA #FIXED "http://vectornator.io"
  vectornator:shadowOpacity CDATA #IMPLIED >
<!ATTLIST image
  xmlns:vectornator CDATA #FIXED "http://vectornator.io"
  vectornator:shadowRadius CDATA #IMPLIED >
<!ATTLIST image
  xmlns:vectornator CDATA #FIXED "http://vectornator.io"
  vectornator:shadowOffset CDATA #IMPLIED >
<!ATTLIST image
  xmlns:vectornator CDATA #FIXED "http://vectornator.io"
  vectornator:shadowAngle CDATA #IMPLIED >

<!ATTLIST g
  xmlns:vectornator CDATA #FIXED "http://vectornator.io"
  vectornator:blendMode CDATA #IMPLIED >
<!ATTLIST g
  xmlns:vectornator CDATA #FIXED "http://vectornator.io"
  vectornator:shadowColor CDATA #IMPLIED >
<!ATTLIST g
  xmlns:vectornator CDATA #FIXED "http://vectornator.io"
  vectornator:shadowOpacity CDATA #IMPLIED >
<!ATTLIST g
  xmlns:vectornator CDATA #FIXED "http://vectornator.io"
  vectornator:shadowRadius CDATA #IMPLIED >
<!ATTLIST g
  xmlns:vectornator CDATA #FIXED "http://vectornator.io"
  vectornator:shadowOffset CDATA #IMPLIED >
<!ATTLIST g
  xmlns:vectornator CDATA #FIXED "http://vectornator.io"
  vectornator:shadowAngle CDATA #IMPLIED >

<!ENTITY % SVG.filter.extra.content  "| feDropShadow" >
<!ELEMENT feDropShadow EMPTY>
<!ATTLIST feDropShadow
  xmlns:svg CDATA #FIXED "http://www.w3.org/Graphics/SVG/1.1/DTD/svg11.dtd"
  dx CDATA #IMPLIED>
<!ATTLIST feDropShadow
  xmlns:svg CDATA #FIXED "http://www.w3.org/Graphics/SVG/1.1/DTD/svg11.dtd"
  dy CDATA #IMPLIED>
<!ATTLIST feDropShadow
  xmlns:svg CDATA #FIXED "http://www.w3.org/Graphics/SVG/1.1/DTD/svg11.dtd"
  stdDeviation CDATA #IMPLIED>
<!ATTLIST feDropShadow
  xmlns:svg CDATA #FIXED "http://www.w3.org/Graphics/SVG/1.1/DTD/svg11.dtd"
  flood-opacity CDATA #IMPLIED>
<!ATTLIST feDropShadow
  xmlns:svg CDATA #FIXED "http://www.w3.org/Graphics/SVG/1.1/DTD/svg11.dtd"
  in CDATA #IMPLIED>
<!ATTLIST feDropShadow
  xmlns:svg CDATA #FIXED "http://www.w3.org/Graphics/SVG/1.1/DTD/svg11.dtd"
  result CDATA #IMPLIED>
<!ATTLIST feDropShadow
  xmlns:svg CDATA #FIXED "http://www.w3.org/Graphics/SVG/1.1/DTD/svg11.dtd"
  flood-color CDATA #IMPLIED>
]
>
<!-- Created with Vectornator (http://vectornator.io/) -->
<svg height="100%" stroke-miterlimit="10" style="fill-rule:nonzero;clip-rule:evenodd;stroke-linecap:round;stroke-linejoin:round;" version="1.1" viewBox="0 0 1047.11 1330.55" width="100%" xml:space="preserve" xmlns="http://www.w3.org/2000/svg" xmlns:vectornator="http://vectornator.io" xmlns:xlink="http://www.w3.org/1999/xlink">
<defs/>
<clipPath id="ArtboardFrame">
<rect height="1330.55" width="1047.11" x="0" y="0"/>
</clipPath>
<g clip-path="url(#ArtboardFrame)" id="-Layer-2-i" vectornator:layerName="&quot; Layer 2 i">
<path d="M944.866-27.3819C944.866-27.3819 932.992 14.2098 917.797 47.9516C911.806 61.2554 897.258 81.8866 894.886 85.3315C888.61 94.4445 849.221 141.797 826.895 166.701C823.217 170.804 820.461 181.001 811.311 183.298C806.637 184.471 795.13 179.603 788.009 178.859C786.554 178.707 781.009 182.481 776.055 179.559C773.672 178.153 774.138 172.267 770.898 171.046C756.956 165.788 712.295 135.086 714.483 131.45C716.544 128.027 734.809 136.28 750.858 140.187C760.53 142.541 782.224 151.535 791.622 144.067C796.238 140.398 798.807 139.628 801.879 144.577C802.287 145.234 804.793 150.268 809.572 151.527C819.767 154.214 835.853 154.777 832.676 164.869C828.126 179.324 809.362 214.293 778.455 226.728C776.665 227.448 766.306 231.453 756.535 229.626C737.076 225.985 718.878 221.854 720.156 223.704C721.767 226.034 726.968 236.629 736.675 240.125C746.191 243.552 763.114 250.693 774.738 252.74C783.087 254.211 812.703 256.189 810.885 252.556C809.022 248.835 776.911 237.594 762.368 234.001C758.902 233.145 758.872 237.666 760.653 240.066C761.023 240.563 767.228 240.284 768.685 237.954C770.512 235.034 771.909 226.581 771.063 219.273C770.905 217.908 763.354 208.79 768.004 201.433C780.387 181.839 807.86 145.728 826.268 125.685C830.358 121.232 836.666 112.59 845.029 110.233C849.629 108.937 854.604 110.268 858.699 110.735C860.717 110.966 879.456 102.827 875.726 119.459C874.296 125.839 872.638 134.848 867.56 143.962C862.499 153.045 854.022 162.229 849.918 170.528C846.632 177.173 838.952 193.097 842.77 198.307C845.131 201.53 854.319 199.557 859.024 199.636C861.883 199.684 868.611 205.092 868.121 208.109C867.842 209.824 860.623 213.596 858.471 212.06C857.925 211.671 853.505 197.861 862.008 200.919C875.295 205.698 900.254 206.935 918.24 204.437C921.941 203.923 933.299 202.865 936.557 202.158C946.097 200.088 965.721 194.634 948.662 189.202C939.913 186.416 888.547 184.012 889.228 171.421C889.568 165.115 883.925 170.6 873.735 169.468C871.451 169.214 853.286 156.45 845.233 162.495C840.648 165.937 837.494 173.649 836.753 180.794C835.449 193.366 822.13 213.658 806.426 228.415C801.24 233.288 767.917 254.438 760.999 250.743C755.742 247.936 755.925 238.141 758.941 225.695C760.341 219.915 765.027 212.126 765.235 206.794C765.279 205.648 757.587 184.028 751.016 191.202C736.922 206.588 765.742 261.948 738.442 299.582C721.375 323.109 704.571 356.145 679.81 374.329C668.989 382.275 630.674 409.225 585.608 417.939C538.61 427.026 484.558 417.34 460.99 398.347C447.378 387.377 426.184 362.664 417.695 338.194C414.123 327.895 412.559 323.787 413.052 304.836C413.701 279.877 425.776 269.793 432.17 262.537C438.822 254.989 451.612 250.285 480.999 248.4C492.953 247.633 502.597 251.338 511.817 259.28C516.848 263.614 521.527 270.393 526.91 275.66C548.547 296.83 547.39 341.713 538.166 365.065C526.287 395.14 481.919 428.007 445.395 445.209C438.532 448.441 401.259 460.941 369.643 457.32C357.759 455.959 345.735 451.975 336.804 446.167C329.682 441.536 322.068 435.124 316.487 432.698C299.799 425.446 301.907 404.959 310.86 398.084C313.362 396.163 328.197 390.624 331.337 405.458C334.414 419.992 309.827 461.257 290.528 473.762C270.672 486.628 190.113 506.568 149.418 480.454C132.39 469.527 105.134 411.171 115.048 385.455C122.762 365.448 139.632 346.52 160.3 354.444C172.537 359.135 188.933 381.632 185.523 403.805C183.802 414.994 181.972 429.122 170.414 446.084C163.004 456.96 157.466 470.548 149.587 467.422C144.985 465.597 131.82 445.621 126.745 429.133C124.285 421.142 118.274 394.586 129.68 383.937C134.549 379.391 139.155 371.218 148.902 369.454C160.884 367.286 169.544 376.775 170.892 390.797C171.27 394.727 172.531 409.817 157.033 408.6C152.431 408.238 131.813 404.904 128.066 392.678C126.214 386.634 129.071 369.632 141.977 363.772C160.149 355.522 190.404 375.738 176.771 405.384C171.965 415.836 169.988 437.294 157.581 447.735C148.664 455.24 138.089 470.323 128.717 476.401C125.904 478.226 117.957 482.143 107.266 480.234C100.458 479.019 89.9793 472.953 87.2757 470.52C83.1134 466.775 85.8029 457.253 93.4476 453.318C95.2182 452.407 104.908 451.963 107.329 460.662C109.527 468.561 131.856 509.999 130.06 544.309C127.556 592.134 112.509 631.597 112.509 631.597L100.268 657.039C100.268 657.039-0.542518 828.116 84.6488 808.671C169.84 789.226 89.56 875.733 99.1084 908.658C112.844 956.023 83.7387 1036.89 76.4137 1068.57C69.9524 1096.51 101.601 1087.7 139.061 1062.61C145.573 1058.25 103.349 1089.93 85.9405 1115.73C80.8209 1123.31 143.813 1114.43 185.469 1079.48C202.965 1064.8 222.825 1046.27 236.105 1035.46C237.8 1034.08 242.099 1026.32 252.573 1027.69C264.497 1029.24 275.339 1035.47 292.755 1040.14C300.93 1042.33 310.501 1049.01 318.833 1052.87C328.59 1057.4 337.1 1059.15 346.471 1061.61C356.011 1064.1 369.768 1068.4 378.221 1068.75C382.317 1068.92 398.126 1069.09 390.735 1062.74C387.772 1060.19 370.764 1052.14 348.557 1046.08C341.504 1044.15 333.822 1042.82 326.035 1041.42C317.1 1039.82 299.606 1035.34 299.606 1035.34C299.606 1035.34 258.81 1025.41 247.836 1005.18C243.938 997.997 247.645 977.711 250.204 958.269C251.32 949.797 247.24 896.608 268.217 892.241C281.849 889.402 298.354 895.308 317.176 898.81C323.922 900.065 333.911 901.922 345.46 904.25C349.879 905.14 354.526 906.1 359.307 907.121C365.012 908.339 370.908 909.645 376.836 911.026C388.617 913.772 400.521 916.814 411.291 920.056C428.172 925.137 441.014 918.518 448.034 931.936C453.278 941.959 444.159 961.374 442.813 975.33C441.85 985.311 433.61 1012.98 432.014 1033.65C431.403 1041.58 430.803 1056.83 422.928 1058.23C409.007 1060.71 337.155 1043.65 293.959 1024.47C257.557 1008.31 244.71 996.029 258.217 1007.11C265.468 1013.06 265.411 906.771 274.498 907.149C284.207 907.554 275.066 906.999 296.344 907.556C319.03 908.15 353.576 916.798 383.349 924.099C401.801 928.624 423.658 929.321 432.203 938.665C440.137 947.341 434.22 995.363 418.963 1045.66C410.536 1073.44 392.929 1104.89 382.336 1128.29C378.415 1136.95 359.824 1156.98 352.991 1169.33C348.974 1176.58 354.165 1180.18 355.018 1179.92C355.762 1179.69 364.57 1179.86 368.707 1174.73C374.568 1167.46 405.281 1122.73 417.934 1095.66C420.641 1089.87 426.891 1080.74 425.395 1077.13C424.764 1075.6 419.237 1073.25 411.482 1081.91C395.487 1099.76 366.244 1149 346.831 1176.21C343.802 1180.46 341.011 1184.17 338.548 1187.14C336.29 1189.86 327.33 1188.61 333.402 1176.49C336.722 1169.86 342.378 1161.49 347.177 1152.1C350.166 1146.25 351.429 1138.81 355.849 1134.78C359.791 1131.19 366.527 1126.58 369.305 1123.55C371.572 1121.08 376.212 1113.74 375.697 1111.84C375.414 1110.79 372.433 1110.05 368.553 1112.8C365.945 1114.65 354.912 1128.41 353.504 1126.14C352.435 1124.41 358.319 1107.87 358.869 1099.36C359.041 1096.7 357.22 1095.29 356.392 1094.77C356.079 1094.57 351.598 1096.79 349.442 1099.82C345.047 1105.98 341.346 1115.57 339.501 1115.52C338.255 1115.49 344.723 1093.35 341.326 1092.24C340.635 1092.01 337.298 1092.03 335.237 1094.61C333.423 1096.88 332.182 1102.59 330.256 1105.52C327.943 1109.04 325.01 1109.65 323.821 1109.94C322.334 1110.31 328.532 1094.96 324.745 1094.12C323.668 1093.88 317.075 1097.61 312.113 1104.33C308.347 1109.43 305.921 1116.6 305.238 1123.06C304.711 1128.03 297.103 1135.19 292.765 1130.95C291.032 1129.25 293.42 1122.47 292.741 1118.63C292.333 1116.32 287.813 1108.95 284.515 1113.84C283.514 1115.32 279.763 1125.58 280.123 1131.25C280.789 1141.72 286.685 1168.23 293.685 1173.38C294.712 1174.14 304.524 1168.66 295.86 1163.42C290.266 1160.03 261.404 1155.71 238.203 1145.12C233.637 1143.04 194.161 1123 196.144 1117.61C198.318 1111.69 219.538 1106.32 230.279 1104.75C241.02 1103.18 247.719 1100.77 252.428 1098.41C255.79 1096.72 260.822 1090.39 266.81 1085.78C271.348 1082.29 278.199 1082.21 278.824 1077.58C279.682 1071.23 270.396 1075.45 262.025 1077.91C259.585 1078.63 248.964 1080.12 248.31 1077.79C248.002 1076.69 249 1070.93 254.86 1068.55C262.94 1065.27 282.31 1063.57 289.422 1060.89C290.638 1060.44 290.308 1056.8 284.226 1056.15C277.081 1055.39 254.479 1057.62 250.189 1055.64C248.938 1055.06 265.088 1048.96 262.723 1047.23C261.383 1046.25 242.278 1043.94 228.957 1051.02C219.804 1055.89 205.045 1076.54 184.967 1087.66C178.302 1091.35 177.568 1103.76 181.504 1108.96C183.12 1111.09 190.264 1114.77 192.014 1108.15C192.661 1105.7 186.146 1099.96 184.91 1094.65C183.748 1089.66 187.978 1085.2 185.006 1079.76" fill="none" fill-rule="evenodd" opacity="1" stroke="#c91414" stroke-linecap="butt" stroke-linejoin="round" stroke-width="3"/>
</g>
</svg>
